<svg xmlns="http://www.w3.org/2000/svg" xmlns:xlink="http://www.w3.org/1999/xlink" width="215" zoomAndPan="magnify" viewBox="0 0 161.25 30.000001" height="40" preserveAspectRatio="xMidYMid meet" version="1.0"><defs><clipPath id="241a610e8d"><path d="M 2.238281 0 L 158.285156 0 L 158.285156 29.03125 L 2.238281 29.03125 Z M 2.238281 0 " clip-rule="nonzero"/></clipPath><clipPath id="f3edc682e2"><path d="M 5.140625 5 L 20 5 L 20 21 L 5.140625 21 Z M 5.140625 5 " clip-rule="nonzero"/></clipPath><clipPath id="25685b0975"><path d="M 25 9 L 38 9 L 38 24.675781 L 25 24.675781 Z M 25 9 " clip-rule="nonzero"/></clipPath><clipPath id="6b751dfd0e"><path d="M 97 4.355469 L 149 4.355469 L 149 21 L 97 21 Z M 97 4.355469 " clip-rule="nonzero"/></clipPath></defs><g clip-path="url(#241a610e8d)"><path fill="#ffffff" d="M 2.238281 0 L 158.285156 0 L 158.285156 29.03125 L 2.238281 29.03125 Z M 2.238281 0 " fill-opacity="1" fill-rule="nonzero"/><path fill="#ffffff" d="M 2.238281 0 L 158.285156 0 L 158.285156 29.03125 L 2.238281 29.03125 Z M 2.238281 0 " fill-opacity="1" fill-rule="nonzero"/></g><g clip-path="url(#f3edc682e2)"><path fill="#1d2f4b" d="M 5.164062 20.65625 L 5.140625 5.867188 L 11.832031 5.855469 C 16.398438 5.851562 19.277344 8.667969 19.285156 13.238281 C 19.292969 17.808594 16.421875 20.636719 11.859375 20.644531 Z M 7.492188 8.003906 L 7.511719 18.507812 L 11.855469 18.503906 C 15.257812 18.496094 16.792969 17.039062 16.785156 13.242188 C 16.777344 9.449219 15.242188 7.992188 11.839844 7.996094 L 7.496094 8.003906 Z M 7.492188 8.003906 " fill-opacity="1" fill-rule="nonzero"/></g><path fill="#1d2f4b" d="M 21.03125 8.378906 L 21.027344 5.839844 L 23.398438 5.835938 L 23.402344 8.375 Z M 21.050781 20.628906 L 21.03125 9.660156 L 23.402344 9.65625 L 23.421875 20.625 Z M 21.050781 20.628906 " fill-opacity="1" fill-rule="nonzero"/><g clip-path="url(#25685b0975)"><path fill="#1d2f4b" d="M 25.621094 24.371094 L 25.597656 9.652344 L 27.769531 9.648438 L 27.773438 12.695312 L 27.972656 12.695312 C 28.40625 10.664062 29.941406 9.421875 32.507812 9.421875 C 35.886719 9.414062 37.800781 11.730469 37.808594 15.128906 C 37.816406 18.527344 35.953125 20.824219 32.550781 20.832031 C 30.09375 20.835938 28.511719 19.535156 28.066406 17.527344 L 27.980469 17.527344 L 27.992188 24.371094 L 25.621094 24.375 Z M 31.734375 18.667969 C 34.082031 18.664062 35.441406 17.757812 35.4375 15.132812 C 35.433594 12.484375 34.050781 11.601562 31.765625 11.605469 C 29.332031 11.609375 27.972656 12.761719 27.976562 15.121094 L 27.976562 15.320312 C 27.980469 17.570312 29.410156 18.671875 31.734375 18.667969 Z M 31.734375 18.667969 " fill-opacity="1" fill-rule="nonzero"/></g><path fill="#1d2f4b" d="M 39.460938 20.597656 L 39.4375 5.8125 L 41.808594 5.804688 L 41.832031 20.59375 Z M 39.460938 20.597656 " fill-opacity="1" fill-rule="nonzero"/><path fill="#1d2f4b" d="M 43.535156 15.117188 C 43.527344 11.699219 45.960938 9.398438 49.582031 9.394531 C 53.226562 9.386719 55.664062 11.679688 55.671875 15.097656 C 55.679688 18.472656 53.246094 20.796875 49.601562 20.800781 C 45.980469 20.808594 43.539062 18.496094 43.535156 15.117188 Z M 53.34375 15.101562 C 53.339844 12.765625 52.242188 11.484375 49.585938 11.488281 C 46.953125 11.496094 45.859375 12.777344 45.859375 15.117188 C 45.863281 17.433594 46.964844 18.6875 49.597656 18.683594 C 52.25 18.679688 53.347656 17.421875 53.34375 15.101562 Z M 53.34375 15.101562 " fill-opacity="1" fill-rule="nonzero"/><path fill="#1d2f4b" d="M 57.386719 20.570312 L 57.371094 9.601562 L 59.542969 9.597656 L 59.546875 12.90625 L 59.679688 12.90625 C 59.960938 11.074219 61.140625 9.375 63.863281 9.367188 C 66.34375 9.363281 67.6875 10.882812 67.996094 12.980469 L 68.128906 12.980469 C 68.410156 11.105469 69.636719 9.359375 72.402344 9.355469 C 75.234375 9.351562 76.660156 11.289062 76.664062 13.9375 L 76.675781 20.535156 L 74.328125 20.539062 L 74.320312 14.582031 C 74.316406 12.421875 73.457031 11.496094 71.355469 11.5 C 69.027344 11.503906 68.195312 12.695312 68.199219 15.121094 L 68.207031 20.550781 L 65.859375 20.554688 L 65.851562 14.597656 C 65.847656 12.4375 65.011719 11.511719 62.90625 11.515625 C 60.558594 11.519531 59.75 12.710938 59.753906 15.136719 L 59.761719 20.566406 L 57.390625 20.570312 Z M 57.386719 20.570312 " fill-opacity="1" fill-rule="nonzero"/><path fill="#1d2f4b" d="M 78.320312 17.886719 C 78.316406 16.1875 79.675781 15.300781 81.828125 15.058594 L 86.785156 14.519531 L 86.785156 13.878906 C 86.78125 12.070312 85.992188 11.429688 83.90625 11.433594 C 81.886719 11.4375 80.902344 12.101562 80.902344 13.710938 L 80.902344 13.796875 L 78.554688 13.800781 L 78.554688 13.714844 C 78.550781 11.21875 80.609375 9.34375 84.078125 9.335938 C 87.546875 9.328125 89.109375 11.226562 89.113281 13.851562 L 89.121094 20.515625 L 86.949219 20.519531 L 86.945312 17.785156 L 86.792969 17.785156 C 86.226562 19.640625 84.492188 20.746094 82.011719 20.75 C 79.753906 20.753906 78.324219 19.695312 78.320312 17.886719 Z M 82.644531 19.027344 C 85.125 19.023438 86.789062 18.09375 86.785156 15.929688 L 82.507812 16.421875 C 81.28125 16.578125 80.6875 16.867188 80.6875 17.730469 C 80.6875 18.609375 81.285156 19.03125 82.644531 19.027344 Z M 82.644531 19.027344 " fill-opacity="1" fill-rule="nonzero"/><g clip-path="url(#6b751dfd0e)"><path fill="#4cabda" d="M 103.433594 20.492188 C 102.003906 20.46875 100.953125 20.007812 100.109375 19.628906 C 99.5 19.375 98.929688 19.269531 98.910156 20.28125 L 98.53125 20.300781 L 97.941406 14.578125 L 98.300781 14.511719 C 98.824219 16.261719 100.046875 20.113281 103.5 20.132812 C 105.371094 20.132812 106.632812 18.914062 106.632812 17.417969 C 106.65625 15.945312 105.75 15.125 103.875 14.386719 L 102.066406 13.609375 C 99.898438 12.722656 98.339844 11.609375 98.363281 9.417969 C 98.40625 6.957031 100.574219 5.378906 103.035156 5.398438 C 104.507812 5.421875 105.328125 5.945312 106.066406 6.21875 C 106.550781 6.386719 107.078125 6.285156 107.097656 5.546875 L 107.414062 5.527344 L 107.875 10.621094 L 107.539062 10.683594 C 106.90625 8.386719 105.519531 5.839844 103.097656 5.777344 C 101.457031 5.714844 100.445312 6.832031 100.445312 8.21875 C 100.445312 9.734375 101.371094 10.535156 103.289062 11.3125 L 105.160156 12.132812 C 107.351562 13.0625 108.589844 14.261719 108.589844 16.175781 C 108.589844 19.164062 105.855469 20.53125 103.433594 20.492188 Z M 117.996094 20.492188 C 116.773438 20.492188 116.144531 19.628906 115.976562 18.300781 L 115.910156 17.839844 C 115.660156 19.164062 114.394531 20.53125 112.460938 20.53125 C 110.671875 20.53125 109.429688 19.375 109.429688 17.816406 C 109.429688 16.40625 110.4375 15.398438 112.3125 15.230469 L 115.511719 14.976562 L 115.363281 13.902344 C 115.113281 11.988281 114.25 10.722656 112.648438 10.722656 C 111.40625 10.722656 110.480469 11.503906 110.019531 12.617188 L 109.746094 12.554688 C 110.144531 11.0625 111.660156 9.441406 113.808594 9.441406 C 115.933594 9.441406 117.28125 10.828125 117.59375 13.335938 L 118.207031 17.984375 C 118.332031 18.890625 118.691406 19.164062 119.046875 19.164062 C 119.34375 19.164062 119.554688 18.914062 119.617188 18.554688 L 119.867188 18.574219 C 119.828125 19.480469 119.175781 20.492188 117.996094 20.492188 Z M 111.554688 17.355469 C 111.554688 18.363281 112.292969 19.292969 113.574219 19.292969 C 114.921875 19.292969 115.742188 18.324219 115.847656 17.355469 L 115.554688 15.292969 L 113.492188 15.460938 C 112.207031 15.585938 111.554688 16.34375 111.554688 17.355469 Z M 127 20.324219 L 127 20.050781 C 127.988281 20.050781 128.703125 19.648438 128.515625 18.21875 L 127.863281 13.398438 C 127.628906 11.734375 126.957031 10.703125 125.671875 10.703125 C 124.558594 10.703125 123.714844 11.757812 123.609375 12.996094 L 123.609375 18.195312 C 123.609375 19.648438 124.21875 20.050781 125.082031 20.050781 L 125.082031 20.324219 L 119.863281 20.324219 L 119.863281 20.050781 C 120.707031 20.050781 121.335938 19.648438 121.335938 18.195312 L 121.335938 11.945312 C 121.335938 10.914062 120.914062 10.578125 119.949219 10.554688 L 119.949219 10.28125 C 121.0625 10.199219 122.328125 9.964844 123.421875 9.460938 L 123.609375 9.566406 L 123.609375 12.09375 C 123.988281 10.640625 125.167969 9.441406 126.789062 9.441406 C 128.554688 9.441406 129.777344 10.640625 130.15625 13.335938 L 130.871094 18.21875 C 131.0625 19.648438 131.652344 20.050781 132.472656 20.050781 L 132.472656 20.324219 Z M 136.019531 20.53125 C 133.957031 20.53125 132.988281 18.996094 132.988281 17.019531 L 132.988281 10.492188 L 131.664062 10.492188 L 131.664062 10.199219 C 133.347656 10.03125 134.652344 8.957031 134.988281 7.042969 L 135.285156 7.042969 L 135.285156 9.652344 L 138.421875 9.652344 L 138.0625 10.492188 L 135.285156 10.492188 L 135.285156 16.785156 C 135.285156 18.195312 135.914062 19.207031 136.96875 19.207031 C 137.871094 19.207031 138.398438 18.46875 138.566406 17.691406 L 138.820312 17.734375 C 138.628906 19.25 137.535156 20.53125 136.019531 20.53125 Z M 143.832031 20.53125 C 140.882812 20.53125 138.96875 18.027344 138.96875 15.039062 C 138.96875 11.839844 141.261719 9.441406 144.082031 9.441406 C 146.589844 9.441406 148.039062 11.3125 148.039062 13.480469 L 141.199219 13.480469 C 141.179688 13.609375 141.179688 13.714844 141.179688 13.839844 C 141.179688 16.828125 142.652344 18.847656 144.988281 18.828125 C 146.734375 18.828125 147.894531 17.648438 148.230469 16.070312 L 148.523438 16.113281 C 148.144531 18.617188 146.316406 20.53125 143.832031 20.53125 Z M 141.222656 13.125 L 144.90625 13.125 C 145.535156 13.125 145.765625 12.828125 145.765625 12.175781 C 145.765625 11.1875 145.261719 9.757812 143.914062 9.757812 C 142.632812 9.757812 141.472656 11.292969 141.222656 13.125 Z M 143.117188 8.324219 L 144.714844 4.832031 L 147.304688 4.808594 L 143.410156 8.453125 Z M 143.117188 8.324219 " fill-opacity="1" fill-rule="nonzero"/></g></svg>