<svg width="215" height="28" viewBox="0 0 215 28" fill="none" xmlns="http://www.w3.org/2000/svg">
<path d="M0.0330611 22.4578L0 2.08446L9.22098 2.06935C15.5116 2.06028 19.4789 5.94394 19.4879 12.2394C19.4969 18.5349 15.5446 22.4306 9.25405 22.4427L0.0330611 22.4578ZM3.23997 5.02819L3.26401 19.502L9.25104 19.4929C13.9367 19.4839 16.0526 17.474 16.0436 12.2454C16.0345 7.01686 13.9156 5.01308 9.23 5.01912L3.24297 5.02819H3.23997Z" fill="white"/>
<path d="M21.8918 5.54484L21.8857 2.04804L25.1528 2.04199L25.1588 5.5388L21.8918 5.54484ZM21.9188 22.4214L21.8948 7.30987L25.1618 7.30382L25.1858 22.4153L21.9188 22.4214Z" fill="white"/>
<path d="M28.2157 27.5805L28.1826 7.30085L31.1761 7.29481L31.1821 11.4898H31.4556C32.0568 8.69111 34.1696 6.98351 37.7072 6.98049C42.3627 6.97142 44.9986 10.16 45.0076 14.8445C45.0166 19.5261 42.4499 22.6934 37.7643 22.7025C34.377 22.7086 32.198 20.9163 31.5879 18.1509H31.4677L31.4827 27.5775L28.2157 27.5835V27.5805ZM36.6402 19.7195C39.8742 19.7135 41.7496 18.4652 41.7436 14.8475C41.7376 11.1996 39.8321 9.98466 36.6853 9.9907C33.3281 9.99675 31.4556 11.5804 31.4617 14.8324V15.1075C31.4677 18.2083 33.4363 19.7255 36.6402 19.7195Z" fill="white"/>
<path d="M47.286 22.3794L47.2529 2.00604L50.5199 2L50.553 22.3734L47.286 22.3794Z" fill="white"/>
<path d="M52.8975 14.8296C52.8885 10.1179 56.2426 6.95049 61.2318 6.94143C66.2511 6.93236 69.6113 10.0907 69.6203 14.8024C69.6293 19.4538 66.2781 22.6514 61.2559 22.6604C56.2667 22.6695 52.9065 19.481 52.8975 14.8296ZM66.4134 14.8085C66.4074 11.5867 64.8926 9.8247 61.2348 9.83075C57.6072 9.83679 56.0984 11.6018 56.1014 14.8266C56.1074 18.0182 57.6222 19.7499 61.2499 19.7439C64.9076 19.7379 66.4164 18.0031 66.4134 14.8085Z" fill="white"/>
<path d="M71.985 22.3402L71.9609 7.22865L74.9544 7.2226L74.9605 11.7833H75.1408C75.5285 9.25963 77.1575 6.91433 80.9084 6.90828C84.3257 6.90224 86.1741 8.99669 86.6009 11.886H86.7812C87.1689 9.29892 88.8581 6.89619 92.6691 6.89015C96.5703 6.8841 98.5389 9.55582 98.5449 13.2037L98.5599 22.2948L95.326 22.3009L95.314 14.0923C95.3079 11.1123 94.1268 9.83689 91.2264 9.84294C88.0225 9.84898 86.8744 11.4931 86.8804 14.8358L86.8924 22.316L83.6585 22.322L83.6465 14.1135C83.6405 11.1335 82.4893 9.85805 79.589 9.86409C76.355 9.87014 75.237 11.5143 75.243 14.8569L75.255 22.3371L71.988 22.3432L71.985 22.3402Z" fill="white"/>
<path d="M100.824 18.6438C100.821 16.3015 102.694 15.0835 105.657 14.745L112.489 14.0045V13.122C112.483 10.6286 111.395 9.74912 108.521 9.75214C105.738 9.75818 104.38 10.6709 104.383 12.8893V13.0102L101.149 13.0162V12.8953C101.143 9.45898 103.98 6.87188 108.759 6.86282C113.538 6.85375 115.687 9.46502 115.693 13.0857L115.708 22.2675L112.714 22.2735L112.708 18.5017H112.498C111.716 21.0586 109.33 22.5818 105.913 22.5879C102.799 22.5939 100.83 21.1372 100.827 18.6438H100.824ZM106.781 20.2154C110.198 20.2093 112.495 18.9279 112.489 15.9479L106.595 16.6279C104.903 16.8425 104.085 17.2414 104.088 18.4262C104.088 19.6411 104.909 20.2184 106.781 20.2154Z" fill="white"/>
<path d="M135.427 22.232C133.455 22.203 132.005 21.565 130.845 21.043C130.004 20.695 129.221 20.55 129.192 21.942L128.67 21.971L127.858 14.083L128.351 13.996C129.076 16.403 130.758 21.71 135.514 21.739C138.095 21.739 139.835 20.057 139.835 17.998C139.864 15.968 138.617 14.837 136.036 13.822L133.542 12.749C130.555 11.531 128.409 9.994 128.438 6.978C128.496 3.585 131.483 1.41 134.876 1.439C136.906 1.468 138.037 2.193 139.052 2.57C139.719 2.802 140.444 2.657 140.473 1.642L140.908 1.613L141.546 8.631L141.082 8.718C140.212 5.557 138.298 2.048 134.963 1.961C132.701 1.874 131.309 3.411 131.309 5.325C131.309 7.413 132.585 8.515 135.224 9.588L137.805 10.719C140.821 11.995 142.532 13.648 142.532 16.287C142.532 20.405 138.762 22.29 135.427 22.232ZM155.488 22.232C153.806 22.232 152.936 21.043 152.704 19.216L152.617 18.578C152.269 20.405 150.529 22.29 147.861 22.29C145.396 22.29 143.685 20.695 143.685 18.549C143.685 16.606 145.077 15.214 147.658 14.982L152.066 14.634L151.863 13.155C151.515 10.516 150.326 8.776 148.122 8.776C146.411 8.776 145.135 9.849 144.497 11.386L144.12 11.299C144.671 9.24 146.759 7.007 149.717 7.007C152.646 7.007 154.502 8.921 154.937 12.372L155.778 18.781C155.952 20.028 156.445 20.405 156.938 20.405C157.344 20.405 157.634 20.057 157.721 19.564L158.069 19.593C158.011 20.84 157.112 22.232 155.488 22.232ZM146.614 17.911C146.614 19.303 147.629 20.579 149.398 20.579C151.254 20.579 152.385 19.245 152.53 17.911L152.124 15.069L149.282 15.301C147.513 15.475 146.614 16.519 146.614 17.911ZM167.893 22V21.623C169.256 21.623 170.242 21.072 169.981 19.1L169.082 12.459C168.763 10.168 167.835 8.747 166.066 8.747C164.529 8.747 163.369 10.197 163.224 11.908V19.071C163.224 21.072 164.065 21.623 165.254 21.623V22H158.062V21.623C159.222 21.623 160.092 21.072 160.092 19.071V10.458C160.092 9.037 159.512 8.573 158.178 8.544V8.167C159.715 8.051 161.455 7.732 162.963 7.036L163.224 7.181V10.661C163.746 8.66 165.37 7.007 167.603 7.007C170.039 7.007 171.721 8.66 172.243 12.372L173.229 19.1C173.49 21.072 174.302 21.623 175.433 21.623V22H167.893ZM180.323 22.29C177.481 22.29 176.147 20.173 176.147 17.447V8.457H174.32V8.051C176.64 7.819 178.438 6.34 178.902 3.701H179.308V7.297H183.629L183.136 8.457H179.308V17.128C179.308 19.071 180.178 20.463 181.628 20.463C182.875 20.463 183.6 19.448 183.832 18.375L184.18 18.433C183.919 20.521 182.411 22.29 180.323 22.29ZM191.084 22.29C187.024 22.29 184.385 18.839 184.385 14.721C184.385 10.313 187.546 7.007 191.432 7.007C194.883 7.007 196.884 9.588 196.884 12.575H187.459C187.43 12.749 187.43 12.894 187.43 13.068C187.43 17.186 189.46 19.97 192.679 19.941C195.086 19.941 196.681 18.317 197.145 16.142L197.551 16.2C197.029 19.651 194.506 22.29 191.084 22.29ZM187.488 12.082H192.563C193.433 12.082 193.752 11.676 193.752 10.777C193.752 9.414 193.056 7.442 191.2 7.442C189.431 7.442 187.836 9.559 187.488 12.082ZM190.098 5.47L192.302 0.655998L195.869 0.626999L190.504 5.644L190.098 5.47Z" fill="#ccac71"/>
</svg>
